#N canvas 228 30 1213 911 12;
#X obj 381 702 hip~ 10;
#X floatatom 649 618 0 0 0 0 - - -;
#X obj 649 666 line~;
#X obj 649 642 pack 0 100;
#X floatatom 574 588 0 0 0 0 - - -;
#X floatatom 730 694 0 0 0 0 - - -;
#X obj 730 766 line~;
#X obj 730 718 * 0.01;
#X floatatom 420 359 0 0 0 0 - - -;
#X obj 458 618 line~;
#X obj 381 654 *~;
#X obj 381 678 cos~;
#X floatatom 381 531 0 0 0 0 - - -;
#X obj 381 555 mtof;
#X obj 381 579 * 0.5;
#X obj 381 726 clip~ -0.2 0.2;
#X obj 381 750 +~;
#X obj 709 792 *~;
#X obj 574 684 *~;
#X obj 381 774 hip~ 5;
#X obj 574 660 +~ 1;
#X obj 574 636 osc~ 0;
#X obj 574 708 +~ 1.46;
#X obj 381 603 osc~ 0;
#X obj 380 806 output~;
#X obj 574 732 vd~ G03-del;
#X obj 709 840 delwrite~ G03-del 1000;
#X obj 709 816 clip~ -1 1;
#X obj 575 418 vsl 15 128 0 127 0 0 empty empty empty 0 -9 0 10 -262144
-1 -1 6432 1;
#X obj 382 367 vsl 15 128 0 127 0 0 empty empty empty 0 -9 0 10 -262144
-1 -1 6246 1;
#X obj 650 449 vsl 15 128 0 127 0 0 empty empty empty 0 -9 0 10 -262144
-1 -1 5919 1;
#X obj 734 463 vsl 15 128 0 127 0 0 empty empty empty 0 -9 0 10 -262144
-1 -1 6631 1;
#X obj 335 267 hsl 128 15 0 127 0 0 empty empty empty -2 -8 0 10 -262144
-1 -1 400 1;
#X obj 591 258 hsl 128 15 0 127 0 0 empty empty empty -2 -8 0 10 -262144
-1 -1 8100 1;
#X obj 458 494 pack 0 10;
#X obj 421 389 * 0.1;
#X floatatom 426 453 5 0 0 0 - - -;
#X text 482 514 comment;
#X obj 423 422 * 1;
#X obj 574 612 / 1000;
#X obj 732 741 pack 0 90;
#X obj 659 592 * 10;
#X text 682 255 ACC 2;
#X text 416 265 ACC 2;
#X obj 257 176 unpack f f;
#X floatatom 283 240 5 0 0 0 - - -;
#X floatatom 358 238 5 0 0 0 - - -;
#X obj 257 96 OSCroute /a1;
#X obj 508 171 unpack f f;
#X floatatom 554 233 5 0 0 0 - - -;
#X floatatom 616 234 5 0 0 0 - - -;
#X obj 510 98 OSCroute /a2;
#X floatatom 826 417 5 0 0 0 - - -;
#X obj 396 39 dumpOSC 11113;
#X connect 0 0 15 0;
#X connect 1 0 3 0;
#X connect 2 0 18 1;
#X connect 3 0 2 0;
#X connect 4 0 39 0;
#X connect 5 0 7 0;
#X connect 6 0 17 1;
#X connect 7 0 40 0;
#X connect 8 0 35 0;
#X connect 9 0 10 1;
#X connect 10 0 11 0;
#X connect 11 0 0 0;
#X connect 12 0 13 0;
#X connect 13 0 14 0;
#X connect 14 0 23 0;
#X connect 15 0 16 0;
#X connect 16 0 19 0;
#X connect 17 0 27 0;
#X connect 18 0 22 0;
#X connect 19 0 17 0;
#X connect 19 0 24 0;
#X connect 19 0 24 1;
#X connect 20 0 18 0;
#X connect 21 0 20 0;
#X connect 22 0 25 0;
#X connect 23 0 10 0;
#X connect 25 0 16 1;
#X connect 27 0 26 0;
#X connect 28 0 4 0;
#X connect 29 0 12 0;
#X connect 30 0 41 0;
#X connect 31 0 5 0;
#X connect 32 0 29 0;
#X connect 32 0 28 0;
#X connect 32 0 8 0;
#X connect 33 0 30 0;
#X connect 33 0 31 0;
#X connect 33 0 52 0;
#X connect 34 0 9 0;
#X connect 35 0 38 0;
#X connect 36 0 34 0;
#X connect 38 0 36 0;
#X connect 39 0 21 0;
#X connect 40 0 6 0;
#X connect 41 0 1 0;
#X connect 44 0 45 0;
#X connect 44 1 46 0;
#X connect 45 0 29 0;
#X connect 46 0 28 0;
#X connect 47 0 44 0;
#X connect 48 0 49 0;
#X connect 48 1 50 0;
#X connect 49 0 30 0;
#X connect 50 0 31 0;
#X connect 51 0 48 0;
#X connect 53 0 47 0;
#X connect 53 0 51 0;
